<?xml version="1.0" standalone="no"?>
<!DOCTYPE svg PUBLIC "-//W3C//DTD SVG 20010904//EN"
 "http://www.w3.org/TR/2001/REC-SVG-20010904/DTD/svg10.dtd">
<svg version="1.0" xmlns="http://www.w3.org/2000/svg"
 width="127.000000pt" height="127.000000pt" viewBox="0 0 127.000000 127.000000"
 preserveAspectRatio="xMidYMid meet">
<metadata>
Created by potrace 1.14, written by Peter Selinger 2001-2017
</metadata>
<g transform="translate(0.000000,127.000000) scale(0.100000,-0.100000)"
fill="#000000" stroke="none">
<path d="M597 874 c-43 -66 -48 -115 -16 -154 l20 -25 -7 56 c-5 48 -2 65 18
108 l25 51 28 -51 c27 -51 28 -58 9 -135 l-7 -29 27 24 c43 40 33 97 -34 180
l-26 31 -37 -56z"/>
<path d="M460 749 c5 -17 9 -34 8 -38 -2 -18 3 -22 16 -12 11 10 22 5 51 -24
45 -45 72 -106 74 -168 1 -10 5 -16 10 -12 11 6 6 69 -10 128 -11 41 -72 109
-126 140 l-32 17 9 -31z"/>
<path d="M750 737 c-57 -45 -88 -87 -96 -134 -10 -54 -11 -88 -3 -108 7 -18 8
-18 9 5 2 39 8 63 24 102 20 48 81 109 101 102 8 -3 15 -5 15 -3 1 2 3 21 6
42 3 20 4 37 2 37 -2 -1 -28 -20 -58 -43z"/>
<path d="M341 701 c-10 -7 -7 -18 13 -49 14 -23 26 -45 26 -49 2 -30 92 -97
120 -88 11 4 23 -1 32 -12 13 -19 31 -23 43 -11 4 3 2 31 -5 62 -12 57 -47
103 -102 132 -32 17 -109 26 -127 15z m126 -58 c31 -15 73 -67 73 -92 0 -18
-18 -3 -52 42 l-30 42 7 -35 c4 -19 13 -45 21 -57 20 -31 2 -29 -31 4 -29 30
-57 77 -62 106 -3 20 13 18 74 -10z"/>
<path d="M845 703 c-16 -3 -46 -16 -65 -31 -40 -29 -74 -62 -64 -62 3 0 1 -7
-7 -16 -11 -14 -22 -114 -13 -114 8 0 48 25 71 44 13 11 28 36 33 55 15 54 12
60 -11 24 -12 -18 -26 -30 -32 -26 -5 3 -7 1 -3 -5 3 -6 2 -13 -3 -16 -19 -12
-20 11 -2 41 21 34 108 80 123 65 13 -13 -24 -83 -64 -121 -18 -17 -28 -31
-22 -31 17 0 94 70 94 86 0 9 5 12 10 9 6 -3 10 3 10 14 0 12 3 21 8 21 8 0
34 52 28 57 -7 7 -60 10 -91 6z"/>
<path d="M335 439 c-4 -5 -4 -21 -1 -35 6 -21 3 -24 -19 -24 -18 0 -25 -5 -25
-19 0 -11 4 -23 10 -26 10 -6 661 -7 667 -1 2 2 5 13 8 25 3 16 -1 21 -16 21
-10 0 -19 5 -19 10 0 6 -5 10 -11 10 -5 0 -7 -6 -3 -12 5 -10 3 -10 -7 0 -12
11 -12 14 1 22 10 7 11 10 3 10 -22 0 -14 18 10 23 19 4 18 4 -5 6 -26 1 -28
-2 -28 -34 0 -31 -3 -35 -26 -35 -14 0 -23 4 -19 9 3 5 1 12 -5 16 -5 3 -10
-1 -10 -9 0 -9 -4 -16 -9 -16 -5 0 -7 9 -4 20 6 24 12 25 39 5 20 -13 21 -12
22 15 1 26 -3 30 -24 30 -18 0 -23 -4 -18 -12 5 -9 2 -9 -9 1 -15 12 -17 11
-17 -13 0 -14 -4 -26 -10 -26 -10 0 -14 13 -11 35 1 16 -58 12 -69 -4 -5 -9
-5 -22 1 -33 8 -15 6 -18 -15 -18 -18 0 -24 4 -20 14 4 11 0 13 -15 9 -22 -6
-26 3 -12 26 5 8 14 10 22 6 11 -6 11 -5 2 5 -6 7 -19 10 -27 7 -18 -7 -21
-38 -5 -54 8 -8 -2 -11 -38 -11 -42 -1 -49 2 -49 19 0 10 4 19 8 19 4 0 5 7 2
15 -10 25 -23 17 -26 -17 -2 -26 -8 -34 -27 -36 -15 -3 -21 0 -16 8 4 6 13 9
21 6 16 -6 19 21 4 44 -9 13 -11 13 -20 0 -5 -8 -10 -22 -11 -30 0 -10 -2 -11
-6 -2 -2 6 -12 12 -21 12 -15 0 -15 -2 -2 -10 13 -8 12 -10 -2 -10 -12 0 -18
8 -18 21 0 17 5 20 21 16 16 -4 19 -3 11 5 -20 20 -45 0 -40 -32 3 -17 1 -30
-4 -30 -8 0 -10 8 -12 45 -1 27 -42 33 -49 8 -4 -16 -5 -17 -6 0 -1 19 -36 24
-46 6z m35 -19 c0 -11 -7 -20 -15 -20 -15 0 -21 21 -8 33 12 13 23 7 23 -13z
m50 10 c0 -5 -4 -10 -10 -10 -5 0 -10 5 -10 10 0 6 5 10 10 10 6 0 10 -4 10
-10z m349 1 c16 -10 6 -31 -15 -31 -8 0 -14 9 -14 20 0 22 7 25 29 11z m111 5
c0 -3 -4 -8 -10 -11 -5 -3 -10 -1 -10 4 0 6 5 11 10 11 6 0 10 -2 10 -4z
m-490 -41 c0 -8 -4 -15 -10 -15 -5 0 -7 7 -4 15 4 8 8 15 10 15 2 0 4 -7 4
-15z m34 0 c3 -8 1 -15 -3 -15 -5 0 -11 7 -15 15 -3 8 -1 15 3 15 5 0 11 -7
15 -15z m371 -5 c3 -5 -3 -10 -15 -10 -12 0 -18 5 -15 10 3 6 10 10 15 10 5 0
12 -4 15 -10z"/>
<path d="M597 428 c-6 -22 -1 -38 12 -38 4 0 7 14 6 30 0 35 -10 39 -18 8z"/>
<path d="M632 420 c0 -19 2 -27 5 -17 2 9 2 25 0 35 -3 9 -5 1 -5 -18z"/>
</g>
</svg>
